<mxfile host="Electron" modified="2023-09-27T12:29:40.875Z" agent="Mozilla/5.0 (Windows NT 10.0; Win64; x64) AppleWebKit/537.36 (KHTML, like Gecko) draw.io/21.8.2 Chrome/114.0.5735.289 Electron/25.8.1 Safari/537.36" etag="mTx5fRfHrh_pD8o18uZs" version="21.8.2" type="device">
  <diagram name="Страница — 1" id="Nrh3TIs0oUijX1fJTNYn">
    <mxGraphModel dx="1062" dy="723" grid="1" gridSize="10" guides="1" tooltips="1" connect="1" arrows="1" fold="1" page="1" pageScale="1" pageWidth="827" pageHeight="1169" math="0" shadow="0">
      <root>
        <mxCell id="0" />
        <mxCell id="1" parent="0" />
        <mxCell id="r8Nsh55Wo7BVCNhZFHVN-41" value="Квитанции" style="swimlane;childLayout=stackLayout;horizontal=1;startSize=50;horizontalStack=0;rounded=1;fontSize=14;fontStyle=0;strokeWidth=2;resizeParent=0;resizeLast=1;shadow=0;dashed=0;align=center;arcSize=4;whiteSpace=wrap;html=1;" parent="1" vertex="1">
          <mxGeometry x="370" y="690" width="160" height="120" as="geometry" />
        </mxCell>
        <mxCell id="r8Nsh55Wo7BVCNhZFHVN-42" value="IDКвитанции (PK), &lt;br&gt;IDПриема (FK), &lt;br&gt;ДатаКвитанции, &lt;br&gt;СуммаОплаты" style="align=left;strokeColor=none;fillColor=none;spacingLeft=4;fontSize=12;verticalAlign=top;resizable=0;rotatable=0;part=1;html=1;" parent="r8Nsh55Wo7BVCNhZFHVN-41" vertex="1">
          <mxGeometry y="50" width="160" height="70" as="geometry" />
        </mxCell>
        <mxCell id="r8Nsh55Wo7BVCNhZFHVN-43" value="Пациенты" style="swimlane;childLayout=stackLayout;horizontal=1;startSize=50;horizontalStack=0;rounded=1;fontSize=14;fontStyle=0;strokeWidth=2;resizeParent=0;resizeLast=1;shadow=0;dashed=0;align=center;arcSize=4;whiteSpace=wrap;html=1;" parent="1" vertex="1">
          <mxGeometry x="110" y="475" width="160" height="160" as="geometry" />
        </mxCell>
        <mxCell id="r8Nsh55Wo7BVCNhZFHVN-44" value="IDПациента (PK), &lt;br&gt;Имя, &lt;br&gt;Фамилия, &lt;br&gt;ДатаРождения, &lt;br&gt;Адрес, &lt;br&gt;НомерТелефона, &lt;br&gt;ЭлектроннаяПочта" style="align=left;strokeColor=none;fillColor=none;spacingLeft=4;fontSize=12;verticalAlign=top;resizable=0;rotatable=0;part=1;html=1;" parent="r8Nsh55Wo7BVCNhZFHVN-43" vertex="1">
          <mxGeometry y="50" width="160" height="110" as="geometry" />
        </mxCell>
        <mxCell id="aUt_O7qGKsbLy1fi4eIr-3" style="edgeStyle=orthogonalEdgeStyle;rounded=0;orthogonalLoop=1;jettySize=auto;html=1;exitX=0.5;exitY=0;exitDx=0;exitDy=0;entryX=0.5;entryY=1;entryDx=0;entryDy=0;endArrow=ERoneToMany;endFill=0;" edge="1" parent="1" source="r8Nsh55Wo7BVCNhZFHVN-45" target="r8Nsh55Wo7BVCNhZFHVN-48">
          <mxGeometry relative="1" as="geometry" />
        </mxCell>
        <mxCell id="r8Nsh55Wo7BVCNhZFHVN-45" value="Врачи" style="swimlane;childLayout=stackLayout;horizontal=1;startSize=50;horizontalStack=0;rounded=1;fontSize=14;fontStyle=0;strokeWidth=2;resizeParent=0;resizeLast=1;shadow=0;dashed=0;align=center;arcSize=4;whiteSpace=wrap;html=1;" parent="1" vertex="1">
          <mxGeometry x="110" y="980" width="160" height="145" as="geometry" />
        </mxCell>
        <mxCell id="r8Nsh55Wo7BVCNhZFHVN-46" value=" IDВрача (PK), &lt;br&gt;Имя, Фамилия, &lt;br&gt;Специальность, &lt;br&gt;СтоимостьКонсультации, &lt;br&gt;ПроцентОтчисления, &lt;br&gt;СтавкаНалога" style="align=left;strokeColor=none;fillColor=none;spacingLeft=4;fontSize=12;verticalAlign=top;resizable=0;rotatable=0;part=1;html=1;" parent="r8Nsh55Wo7BVCNhZFHVN-45" vertex="1">
          <mxGeometry y="50" width="160" height="95" as="geometry" />
        </mxCell>
        <mxCell id="r8Nsh55Wo7BVCNhZFHVN-47" value="Приёмы" style="swimlane;childLayout=stackLayout;horizontal=1;startSize=50;horizontalStack=0;rounded=1;fontSize=14;fontStyle=0;strokeWidth=2;resizeParent=0;resizeLast=1;shadow=0;dashed=0;align=center;arcSize=4;whiteSpace=wrap;html=1;" parent="1" vertex="1">
          <mxGeometry x="110" y="700" width="160" height="195" as="geometry" />
        </mxCell>
        <mxCell id="r8Nsh55Wo7BVCNhZFHVN-48" value="IDПриема (PK), &lt;br&gt;IDПациента (FK), &lt;br&gt;IDВрача (FK), &lt;br&gt;ДатаПриема, &lt;br&gt;ОбщаяСтоимость, &lt;br&gt;ЗарплатаВрача, &lt;br&gt;ЧистыйДоход" style="align=left;strokeColor=none;fillColor=none;spacingLeft=4;fontSize=12;verticalAlign=top;resizable=0;rotatable=0;part=1;html=1;" parent="r8Nsh55Wo7BVCNhZFHVN-47" vertex="1">
          <mxGeometry y="50" width="160" height="145" as="geometry" />
        </mxCell>
        <mxCell id="aUt_O7qGKsbLy1fi4eIr-1" style="edgeStyle=orthogonalEdgeStyle;rounded=0;orthogonalLoop=1;jettySize=auto;html=1;exitX=1;exitY=0.5;exitDx=0;exitDy=0;entryX=0;entryY=0.25;entryDx=0;entryDy=0;endArrow=ERoneToMany;endFill=0;" edge="1" parent="1" source="r8Nsh55Wo7BVCNhZFHVN-48" target="r8Nsh55Wo7BVCNhZFHVN-42">
          <mxGeometry relative="1" as="geometry" />
        </mxCell>
        <mxCell id="aUt_O7qGKsbLy1fi4eIr-2" style="edgeStyle=orthogonalEdgeStyle;rounded=0;orthogonalLoop=1;jettySize=auto;html=1;exitX=0.5;exitY=1;exitDx=0;exitDy=0;entryX=0.5;entryY=0;entryDx=0;entryDy=0;endArrow=ERoneToMany;endFill=0;" edge="1" parent="1" source="r8Nsh55Wo7BVCNhZFHVN-44" target="r8Nsh55Wo7BVCNhZFHVN-47">
          <mxGeometry relative="1" as="geometry" />
        </mxCell>
      </root>
    </mxGraphModel>
  </diagram>
</mxfile>
